<svg version="1.1" id="Logo_ELLE" xmlns="http://www.w3.org/2000/svg" xmlns:xlink="http://www.w3.org/1999/xlink" x="0px" y="0px"
	 width="410px" height="141px" viewBox="0 0 410 141" enable-background="new 0 0 410 141"
	 xml:space="preserve" fill="#ffffff">
<g>
	<path d="M57.012,102.549v37.649H0v-1.255h10.04V1.255H0V0h55.936v37.47h-1.255c0-32.629-12.55-35.139-28.147-35.139v59.701v5.379
		c14.701,0,16.135-10.757,16.135-25.817h1.255v52.351h-1.255c0-15.06-1.434-25.279-16.135-25.279v8.426v56.115v4.661
		c15.598,0,29.223-3.406,29.223-35.318H57.012z"/>
	<path d="M144.142,138.943c15.598,0,29.223-4.482,29.223-36.394h1.255v37.649h-57.012v-1.255h10.04V1.255h-10.04V0h36.573v1.255
		h-10.04v52.888V138.943z"/>
	<path d="M261.75,138.943c15.598,0,29.223-4.482,29.223-36.394h1.255v37.649h-57.012v-1.255h10.04V1.255h-10.04V0h36.573v1.255
		h-10.04v52.888V138.943z"/>
	<path d="M409.835,102.549v37.649h-57.012v-1.255h10.04V1.255h-10.04V0h55.936v37.47h-1.255c0-32.629-12.55-35.139-28.147-35.139
		v59.701v5.379c14.701,0,16.136-10.757,16.136-25.817h1.255v52.351h-1.255c0-15.06-1.435-25.279-16.136-25.279v8.426v56.115v4.661
		c15.598,0,29.223-3.406,29.223-35.318H409.835z"/>
</g>
<g>
	<path d="M60.5,84.159c0,1.468-1.258,2.673-2.674,2.673c-1.468,0-2.674-1.206-2.674-2.673c0-1.468,1.206-2.674,2.674-2.674
		C59.243,81.485,60.5,82.69,60.5,84.159z"/>
	<path d="M69.256,49.818h-3.617v-0.839h3.617c1.678,0,3.355-0.105,4.404-1.311v21.233h0.104c0.944-2.464,3.46-5.348,7.235-5.348
		c6.292,0,10.433,6.501,10.433,11.639c0,6.134-4.247,11.639-10.8,11.639c-3.722,0-6.187-2.778-6.868-4.456H73.66v3.827h-8.021
		v-0.839h3.617V49.818z M73.66,78.601c0,4.981,3.879,7.392,6.973,7.392c5.138,0,5.767-2.988,5.767-10.8c0-7.183-0.786-10.8-5.4-10.8
		c-4.352,0-7.34,4.299-7.34,8.126V78.601z"/>
	<path d="M101.29,78.077c-0.052,3.722,0.472,7.916,5.4,7.916c4.404,0,7.654-2.936,8.388-7.235h0.839
		c-0.839,4.824-4.404,8.074-9.227,8.074c-6.134,0-10.434-4.718-10.434-11.639c0-5.085,4.089-11.639,9.804-11.639
		c6.187,0,9.385,6.921,9.385,9.123c0,0.314-0.157,0.472-0.472,0.472H101.29V78.077z M110.412,70.842
		c0-3.355-0.891-6.449-4.352-6.449c-3.67,0-4.771,3.093-4.771,6.449v1.468h8.755c0.262,0,0.367-0.157,0.367-0.367V70.842z"/>
</g>
</svg>
